# Stone resource node, generated by build_stone_node.py (seed 1337)
mtllib stone_node.mtl
o StoneNode
v 0.03992 0.00000 0.12342
v 2.14261 0.53617 1.08363
v -1.30803 0.00000 2.08886
v -2.52816 0.31728 0.35945
v -1.31691 0.18472 -2.05990
v 2.27489 0.28227 -1.37894
v 0.82236 1.35980 2.10325
v -2.36057 1.30577 1.23650
v -2.29001 0.96665 -0.76439
v 0.95732 1.21854 -1.84006
v 2.45667 1.41216 -0.00123
v -0.36357 2.75403 0.19787
v -0.27362 0.00000 1.66095
v 1.31836 0.00000 0.51248
v 1.01629 0.18000 2.10696
v 2.71011 0.25371 -0.02675
v 0.99673 0.00000 -0.85077
v -1.09213 0.00000 -0.28059
v -2.17996 0.05611 1.50285
v -0.81266 0.00000 -0.83174
v -1.92010 0.15982 -1.14340
v 1.30789 0.00000 -2.06957
v 2.70761 1.13311 0.41634
v 2.56378 0.81583 -0.19985
v -0.51791 0.92567 2.26499
v 1.87759 0.49704 1.96763
v -2.56845 0.74026 1.03414
v -2.00178 0.78801 2.07532
v -1.83066 0.57930 -1.51260
v -2.77606 0.48545 -0.18715
v 1.61654 0.73195 -1.81672
v 0.36456 0.62090 -2.05940
v 1.89062 1.29927 1.00832
v -0.65742 1.66837 2.53693
v -1.69589 1.45993 0.14490
v -0.66050 1.38363 -1.72203
v 2.06306 1.29655 -0.91324
v 0.08016 1.73386 1.51942
v 1.56971 3.30000 -0.03217
v -1.85064 2.43309 0.43752
v -1.20355 1.82037 -0.86388
v -0.08262 2.12081 -0.85223
vn 0.00000 -1.00000 -0.00000
vn 0.30592 -0.87356 0.37856
vn 0.00000 -1.00000 -0.00000
vn 0.00000 -1.00000 0.00000
vn 0.00000 -1.00000 0.00000
vn 0.83682 -0.24445 0.48987
vn 0.00730 -0.19292 0.98119
vn -0.90376 -0.38486 0.18732
vn -0.79373 -0.29764 -0.53048
vn 0.57268 0.04133 -0.81874
vn 0.81998 -0.52739 0.22249
vn -0.11834 -0.08719 0.98914
vn -0.85047 -0.46704 0.24202
vn -0.18337 0.70767 -0.68233
vn 0.68671 0.58419 -0.43261
vn 0.28798 0.92971 0.22957
vn -0.55002 0.63405 0.54356
vn -0.61893 0.78515 -0.02154
vn 0.02888 0.75300 -0.65738
vn 0.82946 0.38304 -0.40653
vn -0.28695 0.78445 -0.54981
vn 0.13866 0.42709 -0.89351
vn 0.31077 0.84167 -0.44161
vn -0.21167 0.81087 -0.54560
vn -0.21154 0.81042 -0.54632
vn -0.51694 0.58506 -0.62488
vn -0.25931 0.81771 -0.51392
vn -0.89723 -0.00993 -0.44145
vn -0.85519 0.01975 -0.51794
vn -0.06753 0.77868 0.62378
vn 0.22032 0.95010 0.22086
vn 0.26828 0.92918 0.25427
vn -0.13938 0.76067 0.63400
vn 0.34290 0.47612 0.80977
vn 0.78866 0.37848 0.48452
vn 0.86419 0.29176 -0.40995
vn 0.85170 0.13618 -0.50603
vn 0.47864 0.61857 -0.62311
vn -0.02993 0.37042 -0.92838
vn -0.24227 0.10121 -0.96492
vn -0.51615 0.58901 -0.62182
vn -0.67651 0.73516 0.04321
vn -0.66178 0.74843 -0.04365
vn -0.79263 0.44174 -0.42025
vn -0.57349 0.56446 0.59371
vn -0.08581 -0.35673 0.93026
vn 0.20981 -0.30118 0.93020
vn 0.57701 0.62266 0.52854
vn 0.52913 0.64738 0.54856
vn 0.40862 0.85307 0.32450
vn 0.17112 0.18542 -0.96765
vn 0.16137 0.26076 -0.95182
vn -0.00283 0.01208 -0.99992
vn -0.81102 0.13688 -0.56878
vn -0.75597 -0.33420 -0.56287
vn -0.43178 -0.89837 -0.08057
vn -0.87092 0.15303 0.46698
vn -0.86340 -0.16322 0.47739
vn -0.51919 -0.44455 0.72994
vn 0.12198 -0.00682 0.99251
vn 0.13488 0.06801 0.98853
vn 0.35392 -0.93303 0.06481
vn 0.89398 0.27771 -0.35167
vn 0.94195 0.15321 -0.29876
vn 0.94167 0.15279 -0.29986
vn 0.23924 -0.96904 0.06108
vn 0.00000 -1.00000 0.00000
vn -0.07013 -0.99028 -0.12014
vn -0.11396 -0.98825 -0.10184
vn -0.12505 -0.99012 -0.06341
vn -0.20790 -0.97798 0.01835
vn -0.27085 -0.95308 -0.13522
vn -0.03048 -0.99945 0.01285
vn -0.02447 -0.99795 -0.05914
vn 0.18343 -0.97979 -0.07973
vn 0.16462 -0.98559 -0.03884
vn 0.00000 -1.00000 0.00000
vn 0.07455 -0.98080 0.18022
vn 0.09313 -0.98725 0.12910
vn 0.44376 -0.87724 0.18310
usemtl StoneNode_Mat
s off
f 1//1 14//1 13//1
f 2//2 14//2 16//2
f 1//3 13//3 18//3
f 1//4 18//4 20//4
f 1//5 20//5 17//5
f 2//6 16//6 23//6
f 3//7 15//7 25//7
f 4//8 19//8 27//8
f 5//9 21//9 29//9
f 6//10 22//10 31//10
f 2//11 23//11 26//11
f 3//12 25//12 28//12
f 4//13 27//13 30//13
f 5//14 29//14 32//14
f 6//15 31//15 24//15
f 7//16 33//16 38//16
f 8//17 34//17 40//17
f 9//18 35//18 41//18
f 10//19 36//19 42//19
f 11//20 37//20 39//20
f 39//21 42//21 12//21
f 39//22 37//22 42//22
f 37//23 10//23 42//23
f 42//24 41//24 12//24
f 42//25 36//25 41//25
f 36//26 9//26 41//26
f 41//27 40//27 12//27
f 41//28 35//28 40//28
f 35//29 8//29 40//29
f 40//30 38//30 12//30
f 40//31 34//31 38//31
f 34//32 7//32 38//32
f 38//33 39//33 12//33
f 38//34 33//34 39//34
f 33//35 11//35 39//35
f 24//36 37//36 11//36
f 24//37 31//37 37//37
f 31//38 10//38 37//38
f 32//39 36//39 10//39
f 32//40 29//40 36//40
f 29//41 9//41 36//41
f 30//42 35//42 9//42
f 30//43 27//43 35//43
f 27//44 8//44 35//44
f 28//45 34//45 8//45
f 28//46 25//46 34//46
f 25//47 7//47 34//47
f 26//48 33//48 7//48
f 26//49 23//49 33//49
f 23//50 11//50 33//50
f 31//51 32//51 10//51
f 31//52 22//52 32//52
f 22//53 5//53 32//53
f 29//54 30//54 9//54
f 29//55 21//55 30//55
f 21//56 4//56 30//56
f 27//57 28//57 8//57
f 27//58 19//58 28//58
f 19//59 3//59 28//59
f 25//60 26//60 7//60
f 25//61 15//61 26//61
f 15//62 2//62 26//62
f 23//63 24//63 11//63
f 23//64 16//64 24//64
f 16//65 6//65 24//65
f 17//66 22//66 6//66
f 17//67 20//67 22//67
f 20//68 5//68 22//68
f 20//69 21//69 5//69
f 20//70 18//70 21//70
f 18//71 4//71 21//71
f 18//72 19//72 4//72
f 18//73 13//73 19//73
f 13//74 3//74 19//74
f 16//75 17//75 6//75
f 16//76 14//76 17//76
f 14//77 1//77 17//77
f 13//78 15//78 3//78
f 13//79 14//79 15//79
f 14//80 2//80 15//80
